
<svg width="240" height="234" viewBox="0 0 240 234" fill="none" xmlns="http://www.w3.org/2000/svg">
<g id="undraw_no_data_re_kwbl 1" clip-path="url(#clip0_9510_14670)">
<path id="Vector" d="M152.186 52.6269H87.5911C86.1191 52.6287 84.7079 53.2142 83.6671 54.2551C82.6262 55.2959 82.0406 56.7071 82.0389 58.1792V201.742L81.2986 201.968L65.4524 206.821C64.7014 207.05 63.8902 206.971 63.1969 206.603C62.5037 206.234 61.9849 205.606 61.7546 204.855L14.6194 50.8909C14.3901 50.1399 14.4682 49.3285 14.8368 48.6351C15.2054 47.9417 15.8342 47.4231 16.585 47.1931L41.0039 39.716L111.795 18.0473L136.214 10.5703C136.586 10.4559 136.976 10.4159 137.363 10.4527C137.75 10.4894 138.126 10.6021 138.47 10.7843C138.813 10.9665 139.118 11.2147 139.365 11.5146C139.613 11.8145 139.798 12.1603 139.912 12.5321L151.96 51.8866L152.186 52.6269Z" fill="white"/>
<path id="Vector_2" d="M166.281 51.8884L151.76 4.45719C151.519 3.66689 151.124 2.93195 150.598 2.29436C150.072 1.65676 149.426 1.12901 148.696 0.741263C147.967 0.353514 147.168 0.113361 146.345 0.034538C145.522 -0.0442853 144.692 0.0397652 143.902 0.281878L109.571 10.7905L38.7829 32.4628L4.45141 42.9751C2.85654 43.4649 1.52114 44.5674 0.738326 46.0407C-0.0444922 47.514 -0.210774 49.2377 0.275987 50.8335L49.9059 212.934C50.3013 214.222 51.0992 215.349 52.1824 216.151C53.2657 216.952 54.5772 217.385 55.9247 217.387C56.5483 217.387 57.1684 217.293 57.7642 217.109L81.2985 209.906L82.0388 209.677V208.903L81.2985 209.129L57.5459 216.402C56.1381 216.831 54.6176 216.685 53.3179 215.994C52.0182 215.304 51.0454 214.126 50.613 212.719L0.98683 50.6151C0.772545 49.918 0.697862 49.1856 0.767052 48.4597C0.836243 47.7337 1.04794 47.0286 1.39004 46.3846C1.73215 45.7406 2.19793 45.1704 2.76071 44.7067C3.32348 44.243 3.9722 43.8948 4.66973 43.6821L39.0013 33.1698L109.789 11.5012L144.121 0.988874C144.65 0.827414 145.2 0.745088 145.753 0.744573C146.94 0.747238 148.095 1.12996 149.049 1.83668C150.003 2.54339 150.705 3.53697 151.054 4.67188L165.508 51.8884L165.737 52.6287H166.507L166.281 51.8884Z" fill="#24262B"/>
<path id="Vector_3" d="M45.4108 47.3157C44.6974 47.3152 44.0029 47.086 43.4292 46.6619C42.8555 46.2378 42.4329 45.641 42.2233 44.959L37.4556 29.3861C37.3275 28.9678 37.283 28.5283 37.3248 28.0928C37.3665 27.6573 37.4936 27.2343 37.6989 26.848C37.9041 26.4616 38.1835 26.1195 38.521 25.8411C38.8585 25.5627 39.2475 25.3535 39.6658 25.2255L104.79 5.28777C105.635 5.02997 106.547 5.1179 107.327 5.53224C108.107 5.94659 108.691 6.6535 108.951 7.49784L113.718 23.0709C113.976 23.9158 113.888 24.8283 113.474 25.6083C113.059 26.3883 112.353 26.9722 111.508 27.2317L46.3841 47.1695C46.0687 47.2662 45.7407 47.3155 45.4108 47.3157Z" fill="#F93939"/>
<path id="Vector_4" d="M70.3854 16.642C74.474 16.642 77.7885 13.3275 77.7885 9.23896C77.7885 5.15039 74.474 1.83594 70.3854 1.83594C66.2969 1.83594 62.9824 5.15039 62.9824 9.23896C62.9824 13.3275 66.2969 16.642 70.3854 16.642Z" fill="#F93939"/>
<path id="Vector_5" d="M70.3851 13.9264C72.9741 13.9264 75.0729 11.8276 75.0729 9.23861C75.0729 6.64959 72.9741 4.55078 70.3851 4.55078C67.7961 4.55078 65.6973 6.64959 65.6973 9.23861C65.6973 11.8276 67.7961 13.9264 70.3851 13.9264Z" fill="white"/>
<path id="Vector_6" d="M223.067 215.495H97.9559C97.1217 215.494 96.322 215.162 95.7321 214.572C95.1423 213.982 94.8105 213.183 94.8096 212.349V62.4373C94.8105 61.6031 95.1423 60.8034 95.7321 60.2136C96.322 59.6237 97.1217 59.2919 97.9559 59.291H223.067C223.901 59.292 224.701 59.6238 225.291 60.2136C225.881 60.8034 226.212 61.6032 226.213 62.4373V212.349C226.212 213.183 225.881 213.982 225.291 214.572C224.701 215.162 223.901 215.494 223.067 215.495Z" fill="#8C8C8C" fill-opacity="0.2"/>
<path id="Vector_7" d="M165.508 51.8867H87.5914C85.9232 51.8891 84.3241 52.5528 83.1445 53.7324C81.9649 54.912 81.3012 56.5111 81.2988 58.1793V209.127L82.0391 208.901V58.1793C82.0409 56.7073 82.6265 55.2961 83.6673 54.2552C84.7082 53.2144 86.1194 52.6288 87.5914 52.627H165.738L165.508 51.8867ZM233.431 51.8867H87.5914C85.9232 51.8891 84.3241 52.5528 83.1445 53.7324C81.9649 54.912 81.3012 56.5111 81.2988 58.1793V227.709C81.3012 229.377 81.9649 230.976 83.1445 232.156C84.3241 233.335 85.9232 233.999 87.5914 234.001H233.431C235.099 233.999 236.698 233.335 237.878 232.156C239.058 230.976 239.721 229.377 239.724 227.709V58.1793C239.721 56.5111 239.058 54.912 237.878 53.7324C236.698 52.5528 235.099 51.8891 233.431 51.8867ZM238.983 227.709C238.982 229.181 238.396 230.592 237.355 231.633C236.314 232.674 234.903 233.259 233.431 233.261H87.5914C86.1194 233.259 84.7082 232.674 83.6673 231.633C82.6265 230.592 82.0409 229.181 82.0391 227.709V58.1793C82.0409 56.7073 82.6265 55.2961 83.6673 54.2552C84.7082 53.2144 86.1194 52.6288 87.5914 52.627H233.431C234.903 52.6288 236.314 53.2144 237.355 54.2552C238.396 55.2961 238.982 56.7073 238.983 58.1793V227.709Z" fill="#24262B"/>
<path id="Vector_8" d="M194.565 68.174H126.457C125.574 68.173 124.727 67.8217 124.103 67.1972C123.478 66.5726 123.127 65.7259 123.126 64.8426V48.556C123.127 47.6727 123.478 46.826 124.103 46.2014C124.727 45.5769 125.574 45.2256 126.457 45.2246H194.565C195.448 45.2256 196.295 45.5769 196.92 46.2014C197.544 46.826 197.896 47.6727 197.897 48.556V64.8426C197.896 65.7259 197.544 66.5726 196.92 67.1972C196.295 67.8217 195.448 68.173 194.565 68.174Z" fill="#F93939"/>
<path id="Vector_9" d="M160.511 46.3354C164.6 46.3354 167.914 43.0209 167.914 38.9323C167.914 34.8437 164.6 31.5293 160.511 31.5293C156.423 31.5293 153.108 34.8437 153.108 38.9323C153.108 43.0209 156.423 46.3354 160.511 46.3354Z" fill="#F93939"/>
<path id="Vector_10" d="M160.511 43.4421C163.001 43.4421 165.02 41.4233 165.02 38.933C165.02 36.4426 163.001 34.4238 160.511 34.4238C158.021 34.4238 156.002 36.4426 156.002 38.933C156.002 41.4233 158.021 43.4421 160.511 43.4421Z" fill="white"/>
</g>
<defs>
<clipPath id="clip0_9510_14670">
<rect width="239.723" height="234" fill="white" transform="translate(0 0.00195312)"/>
</clipPath>
</defs>
</svg>
